REM DIRINDEX 1\2\4,1\2\5,1\2\6,1\3\7,1\3\8,1\3\9,1\3\10
REM DIRNAME folder01,folder02,folder03,folder04,folder05,folder06,folder07,folder08,folder09,folder10
TITLE ""
FILE "b_33.mp3" MP3
  TRACK 01 AUDIO
    TITLE "0:"
    INDEX 01 00:00:00
  TRACK 02 AUDIO
    TITLE "10:cjc058_3125"
    INDEX 01 00:00:15
  TRACK 03 AUDIO
    TITLE "0:"
    INDEX 01 00:04:17
  TRACK 04 AUDIO
    TITLE "7:cjc058_3126"
    INDEX 01 00:04:58
  TRACK 05 AUDIO
    TITLE "0:"
    INDEX 01 00:06:67
  TRACK 06 AUDIO
    TITLE "8:cjc058_3127"
    INDEX 01 00:07:23
  TRACK 07 AUDIO
    TITLE "0:"
    INDEX 01 00:09:06
  TRACK 08 AUDIO
    TITLE "9:cjc058_3128"
    INDEX 01 00:09:47
  TRACK 09 AUDIO
    TITLE "0:"
    INDEX 01 00:12:48
  TRACK 10 AUDIO
    TITLE "7:cjc058_3129"
    INDEX 01 00:13:51
  TRACK 11 AUDIO
    TITLE "0:"
    INDEX 01 00:16:10
  TRACK 12 AUDIO
    TITLE "8:cjc058_3130"
    INDEX 01 00:16:40
  TRACK 13 AUDIO
    TITLE "0:"
    INDEX 01 00:18:58
  TRACK 14 AUDIO
    TITLE "9:cjc058_3131"
    INDEX 01 00:19:24
  TRACK 15 AUDIO
    TITLE "0:"
    INDEX 01 00:22:56
  TRACK 16 AUDIO
    TITLE "7:cjc058_3132"
    INDEX 01 00:23:61
  TRACK 17 AUDIO
    TITLE "0:"
    INDEX 01 00:26:05
  TRACK 18 AUDIO
    TITLE "8:cjc058_3133"
    INDEX 01 00:26:36
  TRACK 19 AUDIO
    TITLE "0:"
    INDEX 01 00:28:35
  TRACK 20 AUDIO
    TITLE "9:cjc058_3134"
    INDEX 01 00:29:01
  TRACK 21 AUDIO
    TITLE "0:"
    INDEX 01 00:32:45
  TRACK 22 AUDIO
    TITLE "7:cjc058_3135"
    INDEX 01 00:33:52
  TRACK 23 AUDIO
    TITLE "0:"
    INDEX 01 00:35:57
  TRACK 24 AUDIO
    TITLE "8:cjc058_3136"
    INDEX 01 00:36:13
  TRACK 25 AUDIO
    TITLE "0:"
    INDEX 01 00:38:12
  TRACK 26 AUDIO
    TITLE "9:cjc058_3137"
    INDEX 01 00:38:53
  TRACK 27 AUDIO
    TITLE "0:"
    INDEX 01 00:42:33
  TRACK 28 AUDIO
    TITLE "7:cjc058_3138"
    INDEX 01 00:43:37
  TRACK 29 AUDIO
    TITLE "0:"
    INDEX 01 00:45:63
  TRACK 30 AUDIO
    TITLE "8:cjc058_3139"
    INDEX 01 00:46:17
  TRACK 31 AUDIO
    TITLE "0:"
    INDEX 01 00:48:16
  TRACK 32 AUDIO
    TITLE "9:cjc058_3140"
    INDEX 01 00:48:57
  TRACK 33 AUDIO
    TITLE "0:"
    INDEX 01 00:52:69
  TRACK 34 AUDIO
    TITLE "7:cjc058_3141"
    INDEX 01 00:54:01
  TRACK 35 AUDIO
    TITLE "0:"
    INDEX 01 00:56:08
  TRACK 36 AUDIO
    TITLE "8:cjc058_3142"
    INDEX 01 00:56:39
  TRACK 37 AUDIO
    TITLE "0:"
    INDEX 01 00:59:10
  TRACK 38 AUDIO
    TITLE "9:cjc058_3143"
    INDEX 01 00:59:51
  TRACK 39 AUDIO
    TITLE "0:"
    INDEX 01 01:03:14
  TRACK 40 AUDIO
    TITLE "7:cjc058_3144"
    INDEX 01 01:04:21
  TRACK 41 AUDIO
    TITLE "0:"
    INDEX 01 01:06:24
  TRACK 42 AUDIO
    TITLE "8:cjc058_3145"
    INDEX 01 01:06:55
  TRACK 43 AUDIO
    TITLE "0:"
    INDEX 01 01:09:56
  TRACK 44 AUDIO
    TITLE "9:cjc058_3146"
    INDEX 01 01:10:22
  TRACK 45 AUDIO
    TITLE "0:"
    INDEX 01 01:14:19
  TRACK 46 AUDIO
    TITLE "7:cjc058_3147"
    INDEX 01 01:15:23
  TRACK 47 AUDIO
    TITLE "0:"
    INDEX 01 01:17:47
  TRACK 48 AUDIO
    TITLE "8:cjc058_3148"
    INDEX 01 01:18:02
  TRACK 49 AUDIO
    TITLE "0:"
    INDEX 01 01:20:12
  TRACK 50 AUDIO
    TITLE "9:cjc058_3149"
    INDEX 01 01:20:51
  TRACK 51 AUDIO
    TITLE "0:"
    INDEX 01 01:24:63
  TRACK 52 AUDIO
    TITLE "7:cjc058_3150"
    INDEX 01 01:25:66
  TRACK 53 AUDIO
    TITLE "0:"
    INDEX 01 01:28:25
  TRACK 54 AUDIO
    TITLE "8:cjc058_3151"
    INDEX 01 01:28:55
  TRACK 55 AUDIO
    TITLE "0:"
    INDEX 01 01:30:54
  TRACK 56 AUDIO
    TITLE "9:cjc058_3152"
    INDEX 01 01:31:22
  TRACK 57 AUDIO
    TITLE "0:"
    INDEX 01 01:35:16
  TRACK 58 AUDIO
    TITLE "7:cjc058_3153"
    INDEX 01 01:36:23
  TRACK 59 AUDIO
    TITLE "0:"
    INDEX 01 01:38:67
  TRACK 60 AUDIO
    TITLE "8:cjc058_3154"
    INDEX 01 01:39:17
  TRACK 61 AUDIO
    TITLE "0:"
    INDEX 01 01:42:16
  TRACK 62 AUDIO
    TITLE "9:cjc058_3155"
    INDEX 01 01:42:59
  TRACK 63 AUDIO
    TITLE "0:"
    INDEX 01 01:46:41
  TRACK 64 AUDIO
    TITLE "7:cjc058_3156"
    INDEX 01 01:47:46
  TRACK 65 AUDIO
    TITLE "0:"
    INDEX 01 01:50:13
  TRACK 66 AUDIO
    TITLE "8:cjc058_3157"
    INDEX 01 01:50:43
  TRACK 67 AUDIO
    TITLE "0:"
    INDEX 01 01:53:20
  TRACK 68 AUDIO
    TITLE "9:cjc058_3158"
    INDEX 01 01:53:63
  TRACK 69 AUDIO
    TITLE "0:"
    INDEX 01 01:58:36
  TRACK 70 AUDIO
    TITLE "7:cjc058_3159"
    INDEX 01 01:59:42
  TRACK 71 AUDIO
    TITLE "0:"
    INDEX 01 02:01:25
  TRACK 72 AUDIO
    TITLE "8:cjc058_3160"
    INDEX 01 02:01:56
  TRACK 73 AUDIO
    TITLE "0:"
    INDEX 01 02:03:36
  TRACK 74 AUDIO
    TITLE "9:cjc058_3161"
    INDEX 01 02:04:02
  TRACK 75 AUDIO
    TITLE "0:"
    INDEX 01 02:08:01
  TRACK 76 AUDIO
    TITLE "7:cjc058_3162"
    INDEX 01 02:09:07
  TRACK 77 AUDIO
    TITLE "0:"
    INDEX 01 02:10:71
  TRACK 78 AUDIO
    TITLE "8:cjc058_3163"
    INDEX 01 02:11:27
  TRACK 79 AUDIO
    TITLE "0:"
    INDEX 01 02:12:64
  TRACK 80 AUDIO
    TITLE "9:cjc058_3164"
    INDEX 01 02:13:32
  TRACK 81 AUDIO
    TITLE "0:"
    INDEX 01 02:18:19
